<svg width="48" height="48" viewBox="0 0 48 48" fill="none" xmlns="http://www.w3.org/2000/svg">
<g clip-path="url(#clip0_1_284)">
<path d="M11 22C4.92487 22 0 17.0752 0 11C0 4.92478 4.92487 0 11 0C17.0751 0 21.9999 4.92487 21.9999 11C21.9934 17.0724 17.0724 21.9934 11 22ZM11 6C8.23856 6 6 8.23856 6 11C6 13.7614 8.23856 15.9999 11 15.9999C13.7614 15.9999 15.9999 13.7614 15.9999 11C15.9999 8.23856 13.7615 6 11 6Z" fill="#FDFDFF"/>
<path d="M37.0001 22C30.925 22 26.0001 17.0752 26.0001 11.0001C26.0001 4.92497 30.9249 0 37.0001 0C43.0753 0 48.0001 4.92487 48.0001 11C47.9934 17.0724 43.0725 21.9934 37.0001 22ZM37.0001 6C34.2387 6 32.0001 8.23856 32.0001 11C32.0001 13.7614 34.2387 15.9999 37.0001 15.9999C39.7615 15.9999 42.0001 13.7615 42.0001 11C42.0001 8.23847 39.7615 6 37.0001 6Z" fill="#FDFDFF"/>
<path d="M11 48C4.92487 48 0 43.0751 0 37C0 30.9249 4.92487 26.0001 11 26.0001C17.0751 26.0001 21.9999 30.9249 21.9999 37C21.9934 43.0724 17.0724 47.9933 11 48ZM11 32C8.23856 32 6 34.2385 6 37C6 39.7615 8.23856 42 11 42C13.7614 42 15.9999 39.7614 15.9999 37C15.9999 34.2386 13.7615 32 11 32Z" fill="#FDFDFF"/>
<path d="M37.0001 48C30.925 48 26.0001 43.0751 26.0001 37C26.0001 30.9249 30.925 26.0001 37.0001 26.0001C43.0752 26.0001 48.0001 30.9248 48.0001 37C47.9934 43.0724 43.0725 47.9933 37.0001 48ZM37.0001 32C34.2387 32 32.0001 34.2385 32.0001 36.9999C32.0001 39.7613 34.2386 42 37.0001 42C39.7616 42 42.0001 39.7614 42.0001 37C42.0001 34.2386 39.7615 32 37.0001 32Z" fill="#FDFDFF"/>
</g>
<defs>
<clipPath id="clip0_1_284">
<rect width="48" height="48" fill="white"/>
</clipPath>
</defs>
</svg>
