<svg width="48" height="48" viewBox="0 0 48 48" fill="none" xmlns="http://www.w3.org/2000/svg">
<g clip-path="url(#clip0_1_272)">
<path d="M32.6 30.0138C33.1626 30.5762 33.9255 30.8921 34.721 30.8921C35.5165 30.8921 36.2794 30.5762 36.842 30.0138L46.294 20.5638C47.3918 19.4637 48.0084 17.973 48.0084 16.4188C48.0084 14.8646 47.3918 13.3739 46.294 12.2738L36.832 2.82377C36.5591 2.52186 36.2276 2.27864 35.8577 2.10891C35.4878 1.93918 35.0872 1.84649 34.6803 1.83648C34.2735 1.82647 33.8688 1.89935 33.491 2.05068C33.1132 2.20201 32.7702 2.42864 32.4827 2.71676C32.1953 3.00488 31.9695 3.34847 31.819 3.72663C31.6686 4.10479 31.5967 4.5096 31.6076 4.91644C31.6186 5.32328 31.7122 5.72363 31.8828 6.09313C32.0534 6.46263 32.2974 6.79355 32.6 7.06577L39.064 13.3998H10.638C7.81776 13.4035 5.1141 14.5254 3.11989 16.5197C1.12568 18.5139 0.00370423 21.2175 0 24.0378L0 37.3998C0.00317613 40.2196 1.12477 42.9231 3.11872 44.917C5.11267 46.911 7.81613 48.0326 10.636 48.0358H37.364C38.1596 48.0358 38.9227 47.7197 39.4853 47.1571C40.0479 46.5945 40.364 45.8314 40.364 45.0358C40.364 44.2401 40.0479 43.4771 39.4853 42.9144C38.9227 42.3518 38.1596 42.0358 37.364 42.0358H10.636C9.40694 42.0342 8.22868 41.5452 7.35961 40.6762C6.49053 39.8071 6.00159 38.6288 6 37.3998V24.0378C6.00106 22.808 6.49004 21.6289 7.35961 20.7594C8.22917 19.8898 9.40825 19.4008 10.638 19.3998H38.956L32.6 25.7718C32.0376 26.3344 31.7216 27.0973 31.7216 27.8928C31.7216 28.6883 32.0376 29.4512 32.6 30.0138Z" fill="#FDFDFF"/>
</g>
<defs>
<clipPath id="clip0_1_272">
<rect width="48" height="48" fill="white"/>
</clipPath>
</defs>
</svg>
