<svg width="48" height="48" viewBox="0 0 48 48" fill="none" xmlns="http://www.w3.org/2000/svg">
<g clip-path="url(#clip0_1_278)">
<path d="M15.4518 6.08588L16.6898 4.08588C17.4712 2.85421 18.551 1.83989 19.8292 1.1371C21.1073 0.434298 22.5422 0.0657959 24.0008 0.0657959C25.4594 0.0657959 26.8944 0.434298 28.1725 1.1371C29.4507 1.83989 30.5305 2.85421 31.3118 4.08588L35.5738 10.8619L38.2898 9.00788C38.7796 8.67358 39.3575 8.49193 39.9505 8.48588C40.5434 8.47982 41.1249 8.64963 41.6214 8.97386C42.1179 9.29808 42.5072 9.76218 42.7401 10.3075C42.9729 10.8529 43.039 11.455 42.9298 12.0379L41.4578 19.9239C41.2871 20.8412 40.8018 21.6702 40.0855 22.2682C39.3693 22.8662 38.4669 23.1956 37.5338 23.1999C37.2738 23.1999 28.9338 21.5839 28.9338 21.5839C28.354 21.4695 27.8208 21.1863 27.4013 20.7699C26.9818 20.3536 26.6947 19.8226 26.5759 19.2436C26.4571 18.6646 26.512 18.0634 26.7336 17.5155C26.9553 16.9676 27.3339 16.4974 27.8218 16.1639L30.6118 14.2579L26.2118 7.27188C25.9801 6.89623 25.6566 6.58576 25.2717 6.3697C24.8869 6.15365 24.4533 6.03912 24.012 6.03692C23.5706 6.03472 23.1359 6.14492 22.7489 6.35712C22.3619 6.56933 22.0353 6.87656 21.7998 7.24988L20.5578 9.24988C20.3501 9.58515 20.0783 9.87621 19.7581 10.1065C19.4379 10.3367 19.0754 10.5016 18.6914 10.5918C18.3075 10.6819 17.9095 10.6956 17.5203 10.632C17.131 10.5683 16.7581 10.4286 16.4228 10.2209C16.0876 10.0131 15.7965 9.74138 15.5663 9.42114C15.336 9.10091 15.1711 8.73845 15.081 8.35448C14.9908 7.97051 14.9771 7.57254 15.0408 7.1833C15.1044 6.79405 15.2441 6.42115 15.4518 6.08588ZM46.7058 28.9239L45.5498 27.0619C45.3446 26.7223 45.0741 26.4269 44.7539 26.1926C44.4337 25.9583 44.0702 25.7898 43.6844 25.697C43.2987 25.6041 42.8984 25.5887 42.5066 25.6517C42.1149 25.7146 41.7395 25.8546 41.4023 26.0635C41.065 26.2725 40.7726 26.5463 40.5418 26.8691C40.3111 27.1918 40.1467 27.5572 40.0581 27.9439C39.9695 28.3307 39.9585 28.7311 40.0258 29.1221C40.093 29.5132 40.2372 29.887 40.4498 30.2219L41.6058 32.0859C41.847 32.4778 41.979 32.927 41.9885 33.387C41.9979 33.8471 41.8843 34.3013 41.6594 34.7028C41.4345 35.1042 41.1065 35.4383 40.7093 35.6706C40.312 35.9028 39.86 36.0248 39.3998 36.0239H29.9998V32.9999C30.0006 32.4153 29.8307 31.8433 29.5108 31.3541C29.1909 30.8648 28.735 30.4797 28.1992 30.246C27.6634 30.0123 27.071 29.9402 26.4948 30.0386C25.9186 30.137 25.3837 30.4016 24.9558 30.7999L19.3998 35.9839C18.9719 36.3536 18.6273 36.8099 18.3887 37.3227C18.15 37.8354 18.0228 38.3929 18.0155 38.9583C18.0081 39.5238 18.1207 40.0845 18.3459 40.6032C18.5711 41.122 18.9037 41.5871 19.3218 41.9679L24.9578 47.1999C25.3858 47.5975 25.9205 47.8615 26.4964 47.9596C27.0723 48.0576 27.6642 47.9854 28.1996 47.7518C28.735 47.5181 29.1906 47.1333 29.5104 46.6445C29.8302 46.1556 30.0003 45.584 29.9998 44.9999V42.0239H39.3998C40.93 42.0264 42.4329 41.6198 43.7532 40.8463C45.0734 40.0728 46.1628 38.9605 46.9088 37.6245C47.6547 36.2885 48.0299 34.7774 47.9956 33.2477C47.9614 31.7179 47.5188 30.2251 46.7138 28.9239H46.7058ZM16.1998 16.7619C16.0999 16.2433 15.8987 15.7495 15.6077 15.3088C15.3167 14.868 14.9416 14.489 14.5039 14.1935C14.0662 13.8979 13.5745 13.6916 13.057 13.5863C12.5394 13.481 12.0062 13.4788 11.4878 13.5799L3.67585 15.1179C3.09547 15.232 2.56177 15.515 2.14181 15.9315C1.72186 16.3481 1.4344 16.8794 1.31557 17.4588C1.19673 18.0383 1.25183 18.6399 1.47393 19.1881C1.69603 19.7363 2.07522 20.2066 2.56385 20.5399L5.32385 22.4239L1.29585 28.9239C0.480796 30.2182 0.0317846 31.7091 -0.00343239 33.2383C-0.0386494 34.7674 0.341245 36.2775 1.09585 37.6079C1.83616 38.958 2.92908 40.0819 4.25803 40.8596C5.58699 41.6374 7.10213 42.0397 8.64185 42.0239L11.0298 41.9999C11.8255 41.9919 12.5854 41.6682 13.1424 41.1C13.6994 40.5318 14.0078 39.7655 13.9998 38.9699C13.9919 38.1742 13.6682 37.4143 13.1 36.8574C12.5317 36.3004 11.7655 35.9919 10.9698 35.9999L8.59985 36.0239C8.13991 36.024 7.68829 35.9013 7.29161 35.6685C6.89493 35.4357 6.56758 35.1012 6.34335 34.6996C6.11912 34.2981 6.00614 33.8439 6.01607 33.3841C6.026 32.9243 6.15849 32.4754 6.39985 32.0839L10.2878 25.8119L13.0318 27.6859C13.5215 28.02 14.0991 28.2015 14.6918 28.2076C15.2846 28.2137 15.8658 28.0441 16.3622 27.7201C16.8586 27.3962 17.2479 26.9324 17.481 26.3874C17.7141 25.8424 17.7805 25.2406 17.6718 24.6579L16.1998 16.7619Z" fill="#FDFDFF"/>
</g>
<defs>
<clipPath id="clip0_1_278">
<rect width="48" height="48" fill="white"/>
</clipPath>
</defs>
</svg>
