<svg width="48" height="48" viewBox="0 0 48 48" fill="none" xmlns="http://www.w3.org/2000/svg">
<g clip-path="url(#clip0_1_266)">
<path d="M45 42H11C9.67392 42 8.40215 41.4732 7.46447 40.5355C6.52678 39.5979 6 38.3261 6 37V3C6 2.20435 5.68393 1.44129 5.12132 0.87868C4.55871 0.31607 3.79565 0 3 0C2.20435 0 1.44129 0.31607 0.87868 0.87868C0.31607 1.44129 0 2.20435 0 3L0 37C0.00317634 39.9164 1.16312 42.7125 3.22533 44.7747C5.28755 46.8369 8.08359 47.9968 11 48H45C45.7957 48 46.5587 47.6839 47.1213 47.1213C47.6839 46.5587 48 45.7957 48 45C48 44.2043 47.6839 43.4413 47.1213 42.8787C46.5587 42.3161 45.7957 42 45 42Z" fill="#FDFDFF"/>
<path d="M44.9998 7.95209H38.8278C38.4323 7.95217 38.0457 8.06952 37.7169 8.28928C37.388 8.50905 37.1318 8.82138 36.9804 9.18678C36.8291 9.55218 36.7895 9.95424 36.8666 10.3422C36.9438 10.7301 37.1342 11.0864 37.4138 11.3661L38.8798 12.8301L31.7058 20.0001C31.6129 20.0932 31.5026 20.1671 31.3811 20.2175C31.2596 20.2679 31.1293 20.2939 30.9978 20.2939C30.8663 20.2939 30.736 20.2679 30.6145 20.2175C30.493 20.1671 30.3827 20.0932 30.2898 20.0001L29.9498 19.6601C28.6165 18.3864 26.8436 17.6757 24.9998 17.6757C23.156 17.6757 21.3831 18.3864 20.0498 19.6601L11.8498 27.8601C11.5633 28.1368 11.3347 28.4679 11.1775 28.8339C11.0203 29.1999 10.9375 29.5935 10.9341 29.9919C10.9306 30.3902 11.0065 30.7853 11.1574 31.154C11.3082 31.5226 11.531 31.8576 11.8126 32.1393C12.0943 32.421 12.4293 32.6437 12.798 32.7946C13.1666 32.9454 13.5617 33.0213 13.96 33.0178C14.3584 33.0144 14.752 32.9316 15.118 32.7744C15.484 32.6172 15.8151 32.3886 16.0918 32.1021L24.2918 23.9021C24.3847 23.809 24.495 23.7351 24.6165 23.6847C24.738 23.6343 24.8683 23.6083 24.9998 23.6083C25.1313 23.6083 25.2616 23.6343 25.3831 23.6847C25.5046 23.7351 25.6149 23.809 25.7078 23.9021L26.0478 24.2421C27.3815 25.5148 29.1542 26.225 30.9978 26.225C32.8413 26.225 34.6141 25.5148 35.9478 24.2421L43.1198 17.0721L44.5838 18.5381C44.8634 18.8184 45.2199 19.0094 45.6081 19.0869C45.9964 19.1645 46.3989 19.125 46.7647 18.9736C47.1305 18.8222 47.4431 18.5656 47.663 18.2363C47.8829 17.9071 48.0001 17.52 47.9998 17.1241V10.9521C47.9998 10.1564 47.6837 9.39338 47.1211 8.83077C46.5585 8.26816 45.7954 7.95209 44.9998 7.95209Z" fill="#FDFDFF"/>
</g>
<defs>
<clipPath id="clip0_1_266">
<rect width="48" height="48" fill="white"/>
</clipPath>
</defs>
</svg>
