<svg width="12" height="12" viewBox="0 0 12 12" fill="none" xmlns="http://www.w3.org/2000/svg">
<path d="M1.33334 9.55555V2.44444C1.33334 1.85806 1.33334 1.56487 1.45674 1.39138C1.56444 1.23996 1.73043 1.14037 1.91472 1.1166C2.12568 1.08939 2.38383 1.22707 2.90025 1.5025L2.9017 1.50328L9.56837 5.05883C10.1414 5.36442 10.4278 5.51725 10.5217 5.72071C10.6035 5.89795 10.6035 6.10208 10.5217 6.27932C10.4278 6.48278 10.1414 6.63559 9.56837 6.94118L2.9017 10.4967L2.89986 10.4977C2.3837 10.773 2.12562 10.9106 1.91472 10.8834C1.73043 10.8597 1.56444 10.7601 1.45674 10.6087C1.33334 10.4352 1.33334 10.1419 1.33334 9.55555Z" fill="#FDFDFF" stroke="#FDFDFF" stroke-width="2" stroke-linecap="round" stroke-linejoin="round"/>
</svg>
